<?xml version="1.0" encoding="UTF-8"?>
<svg id="Capa_1" data-name="Capa 1" xmlns="http://www.w3.org/2000/svg" viewBox="0 0 554.95 554.95">
  <defs>
    <style>
      .cls-1 {
        fill: #fff;
      }

      .cls-2 {
        opacity: .8;
      }

      .cls-3 {
        fill: #366549;
      }

      .cls-4 {
        opacity: .85;
      }

      .cls-4, .cls-5, .cls-6, .cls-7, .cls-8 {
        fill: #eb5f29;
      }

      .cls-4, .cls-5, .cls-6, .cls-8 {
        isolation: isolate;
      }

      .cls-9 {
        fill: #1e1e1c;
      }

      .cls-5 {
        opacity: .9;
      }

      .cls-10 {
        opacity: .6;
      }

      .cls-6 {
        opacity: .75;
      }

      .cls-8 {
        opacity: .95;
      }
    </style>
  </defs>
  <circle class="cls-9" cx="277.48" cy="277.48" r="277.48"/>
  <g>
    <circle class="cls-3" cx="277.48" cy="277.51" r="252.25"/>
    <g>
      <g>
        <polygon class="cls-1" points="496.21 151.28 277.64 25.09 59.07 151.29 59.07 403.66 277.64 529.86 496.21 403.66 496.21 151.28"/>
        <polygon class="cls-5" points="280.94 136.5 157.05 351.07 404.82 351.07 280.94 136.5"/>
        <polygon class="cls-4" points="59.07 151.29 280.94 136.5 157.05 351.07 59.07 151.29"/>
        <polygon class="cls-6" points="280.94 136.5 496.21 151.28 404.82 351.07 280.94 136.5"/>
        <polygon class="cls-8" points="59.07 151.29 59.07 403.66 157.05 351.07 59.07 151.29"/>
        <polygon class="cls-8" points="404.82 351.07 496.21 151.28 496.21 403.66 404.82 351.07"/>
        <polygon class="cls-4" points="496.21 403.66 277.64 529.86 404.82 351.07 496.21 403.66"/>
        <polygon class="cls-6" points="277.64 529.86 404.82 351.07 157.05 351.07 277.64 529.86"/>
        <polygon class="cls-4" points="59.07 403.66 157.05 351.07 277.64 529.86 59.07 403.66"/>
        <polygon class="cls-8" points="59.07 151.29 280.94 136.5 277.64 25.09 59.07 151.29"/>
        <polygon class="cls-4" points="280.94 136.5 277.64 25.09 496.21 151.28 280.94 136.5"/>
      </g>
      <g>
        <path class="cls-1" d="m241.75,304.87h26.64c2.65,0,4.68.54,6.07,1.63,1.39,1.09,2.09,2.57,2.09,4.44,0,1.66-.55,3.08-1.65,4.24-1.11,1.16-2.78,1.74-5.02,1.74h-37.57c-2.55,0-4.54-.71-5.97-2.12s-2.14-3.07-2.14-4.97c0-1.22.46-2.85,1.38-4.87.92-2.03,1.92-3.61,3.01-4.77,4.52-4.69,8.61-8.72,12.25-12.07,3.64-3.35,6.25-5.55,7.81-6.61,2.78-1.97,5.12-3.96,6.96-5.94,1.86-1.99,3.27-4.03,4.24-6.12.97-2.09,1.45-4.14,1.45-6.14,0-2.18-.51-4.13-1.55-5.84s-2.45-3.06-4.24-4.01-3.73-1.43-5.84-1.43c-4.46,0-7.96,1.96-10.51,5.87-.34.51-.91,1.91-1.71,4.19-.8,2.28-1.71,4.04-2.7,5.26s-2.47,1.84-4.41,1.84c-1.71,0-3.12-.57-4.24-1.69s-1.69-2.65-1.69-4.59c0-2.35.52-4.79,1.58-7.35,1.05-2.55,2.62-4.86,4.72-6.94,2.09-2.08,4.74-3.75,7.96-5.02,3.22-1.28,6.98-1.92,11.3-1.92,5.21,0,9.65.82,13.32,2.45,2.38,1.09,4.47,2.58,6.28,4.49,1.81,1.91,3.21,4.11,4.21,6.61,1,2.5,1.5,5.1,1.5,7.78,0,4.22-1.05,8.05-3.14,11.51-2.09,3.45-4.23,6.15-6.41,8.11-2.18,1.96-5.82,5.02-10.95,9.21-5.13,4.19-8.64,7.44-10.53,9.75-.82.92-1.65,2.03-2.5,3.32v-.02Z"/>
        <path class="cls-1" d="m337.68,280.22c0,5.58-.34,10.37-1.02,14.39-.69,4.02-1.94,7.66-3.77,10.92-2.31,4.02-5.31,7.11-8.98,9.29s-7.76,3.27-12.25,3.27c-5.18,0-9.81-1.46-13.9-4.39s-7.18-6.97-9.26-12.15c-1.06-2.83-1.83-5.94-2.32-9.36-.49-3.42-.74-7.12-.74-11.1,0-5.14.27-9.77.82-13.88.54-4.12,1.39-7.66,2.55-10.61,2.01-4.9,4.92-8.64,8.75-11.2,3.82-2.57,8.39-3.85,13.7-3.85,3.5,0,6.69.58,9.55,1.71,2.86,1.14,5.37,2.81,7.53,5,2.16,2.19,3.99,4.9,5.49,8.14,2.58,5.61,3.87,13.56,3.87,23.83h-.01Zm-13.98-1.02c0-6.23-.37-11.32-1.12-15.29s-2.01-6.95-3.77-8.98-4.22-3.04-7.35-3.04c-4.49,0-7.61,2.26-9.36,6.79-1.76,4.52-2.63,11.5-2.63,20.93,0,6.4.37,11.63,1.12,15.72s2.01,7.17,3.77,9.26,4.17,3.14,7.19,3.14,5.58-1.09,7.35-3.27,3.01-5.29,3.72-9.34c.72-4.05,1.07-9.35,1.07-15.92h.01Z"/>
      </g>
      <g class="cls-10">
        <path class="cls-7" d="m172.38,228.74l12.22-21.17c1.22-2.11,2.58-3.47,4.09-4.08,1.5-.61,3-.48,4.49.37,1.32.77,2.19,1.86,2.6,3.26.41,1.41.1,3.01-.93,4.79l-17.23,29.85c-1.17,2.03-2.64,3.29-4.42,3.77s-3.42.29-4.93-.58c-.97-.57-2.05-1.67-3.24-3.33-1.19-1.65-1.99-3.19-2.41-4.58-1.65-5.75-2.98-10.84-3.98-15.27-.99-4.43-1.55-7.51-1.66-9.23-.29-3.12-.8-5.87-1.52-8.26-.73-2.38-1.71-4.44-2.93-6.18-1.22-1.74-2.62-3.06-4.22-3.98-1.73-1-3.51-1.48-5.36-1.44s-3.55.54-5.13,1.52-2.85,2.31-3.81,3.99c-2.05,3.54-2.1,7.22-.16,11.05.25.5,1.1,1.59,2.54,3.28s2.42,3.2,2.94,4.56.32,2.81-.57,4.35c-.78,1.35-1.88,2.22-3.28,2.59s-2.89.12-4.42-.77c-1.87-1.08-3.57-2.62-5.12-4.63-1.54-2.01-2.66-4.32-3.35-6.93s-.81-5.49-.34-8.63c.46-3.14,1.69-6.43,3.66-9.86,2.39-4.14,5.08-7.29,8.06-9.46,1.96-1.39,4.11-2.37,6.45-2.93,2.34-.55,4.73-.67,7.18-.31,2.44.35,4.74,1.14,6.87,2.37,3.35,1.94,5.92,4.53,7.71,7.77,1.79,3.25,2.96,6.19,3.51,8.81.55,2.62,1.32,6.93,2.3,12.93.98,5.99,1.95,10.27,2.91,12.84.35,1.07.85,2.24,1.49,3.51h-.02Z"/>
      </g>
      <g class="cls-2">
        <path class="cls-7" d="m359.65,199.21l36.04-20.82c-9.02-3.73-14.21-6.76-15.55-9.09-.64-1.11-.77-2.35-.37-3.71s1.16-2.39,2.33-3.06c1.34-.78,2.58-.93,3.7-.44,1.12.47,2.81,1.5,5.05,3.06,3.35,2.33,6.41,3.97,9.18,4.92s5.61,1.57,8.53,1.87c2.92.29,4.74.52,5.47.7.74.17,1.46.88,2.18,2.12.81,1.4.92,2.84.32,4.31s-1.85,2.75-3.74,3.85l-45.35,26.18c-5.31,3.07-9.01,2.78-11.1-.83-.93-1.61-1.14-3.22-.62-4.82.51-1.6,1.84-3.02,3.95-4.24h-.01Z"/>
        <path class="cls-7" d="m385.22,244.41l7.37-4.26-11.48-19.89c-1.45-2.51-1.97-4.72-1.55-6.63.41-1.91,1.59-3.43,3.55-4.56.5-.29,1.06-.49,1.69-.61.63-.11,1.32-.15,2.11-.11.78.04,1.55.11,2.31.2s1.69.2,2.78.34l40.21,4.78c2.64.3,4.63.66,5.97,1.07,1.34.4,2.37,1.23,3.09,2.47,2.32,4.02,1.18,7.35-3.42,10l-30.66,17.7.98,1.71c1.17,2.04,1.84,3.82,1.99,5.37.15,1.54-.71,2.87-2.58,3.95-1.53.89-2.94,1.03-4.22.42-1.28-.6-2.5-1.91-3.65-3.9l-1.39-2.41-7.37,4.26c-2.04,1.17-3.8,1.59-5.32,1.27s-2.69-1.24-3.57-2.74-1.04-2.97-.54-4.47c.49-1.49,1.73-2.82,3.7-3.97h.02Zm6.41-26.41l9.84,17.03,23.02-13.29-32.85-3.74Z"/>
      </g>
      <g class="cls-2">
        <path class="cls-7" d="m299.33,437.8c0,3.07-.84,5.96-2.51,8.68-1.67,2.71-4.13,4.88-7.37,6.52-3.24,1.62-7.02,2.44-11.35,2.44-3.65,0-6.86-.47-9.63-1.42-2.76-.95-5.07-2.26-6.91-3.94s-3.21-3.56-4.1-5.66-1.33-4.34-1.33-6.7c0-3.01.78-5.69,2.32-8.06,1.55-2.36,3.86-4.3,6.93-5.8-2.61-1.01-4.77-2.34-6.49-3.99s-3.02-3.54-3.89-5.71-1.31-4.57-1.31-7.2c0-3.86.94-7.38,2.81-10.52,1.88-3.15,4.62-5.61,8.24-7.39,3.62-1.78,7.89-2.67,12.8-2.67s9.45.89,13.08,2.67c3.62,1.78,6.36,4.23,8.19,7.35,1.85,3.12,2.76,6.61,2.76,10.47,0,8.25-3.89,13.92-11.69,16.99,6.3,2.95,9.43,7.6,9.43,13.95h.01Zm-33.01-30.48c0,2.39.49,4.48,1.47,6.27.98,1.78,2.36,3.15,4.15,4.1,1.78.95,3.77,1.42,5.98,1.42,3.13,0,5.75-1.04,7.87-3.13,2.12-2.09,3.18-5,3.18-8.75,0-2.39-.49-4.5-1.49-6.33-1-1.83-2.35-3.24-4.08-4.24-1.72-1-3.64-1.49-5.75-1.49s-4.09.5-5.8,1.52c-1.72,1.01-3.07,2.44-4.06,4.28-.98,1.85-1.47,3.96-1.47,6.36h0Zm11.51,39.32c2.89,0,5.21-.9,6.97-2.69s2.64-4.11,2.64-6.93c0-2.61-.91-4.78-2.71-6.52s-4.15-2.6-7-2.6c-1.44,0-2.75.23-3.94.69s-2.2,1.1-3.04,1.91-1.49,1.78-1.96,2.91c-.46,1.12-.69,2.35-.69,3.7,0,1.81.4,3.44,1.22,4.88s1.96,2.58,3.43,3.41,3.16,1.24,5.07,1.24h0Z"/>
      </g>
    </g>
  </g>
</svg>