<?xml version="1.0" encoding="utf-8"?>
<!-- Generator: Adobe Illustrator 27.7.0, SVG Export Plug-In . SVG Version: 6.00 Build 0)  -->
<svg version="1.1" id="Capa_1" xmlns="http://www.w3.org/2000/svg" xmlns:xlink="http://www.w3.org/1999/xlink" x="0px" y="0px"
	 viewBox="0 0 4581.5 987" style="enable-background:new 0 0 4581.5 987;" xml:space="preserve">
<style type="text/css">
	.st0{fill:#1D1E1C;}
	.st1{fill:#356548;}
	.st2{fill:#FFFFFF;}
	.st3{opacity:0.9;fill:#EA5E28;enable-background:new    ;}
	.st4{opacity:0.85;fill:#EA5E28;enable-background:new    ;}
	.st5{opacity:0.75;fill:#EA5E28;enable-background:new    ;}
	.st6{opacity:0.95;fill:#EA5E28;enable-background:new    ;}
	.st7{opacity:0.6;}
	.st8{fill:#EA5E28;}
	.st9{opacity:0.8;}
	.st10{stroke:#000000;stroke-width:30;stroke-miterlimit:10;}
</style>
<g>
	<circle class="st0" cx="493.5" cy="493.5" r="493.5"/>
	<g>
		<circle class="st1" cx="493.5" cy="493.6" r="448.6"/>
		<g>
			<g>
				<polygon class="st2" points="882.5,269.1 493.8,44.6 105.1,269.1 105.1,717.9 493.8,942.4 882.5,717.9 				"/>
				<polygon class="st3" points="499.7,242.8 279.3,624.4 720,624.4 				"/>
				<polygon class="st4" points="105.1,269.1 499.7,242.8 279.3,624.4 				"/>
				<polygon class="st5" points="499.7,242.8 882.5,269.1 720,624.4 				"/>
				<polygon class="st6" points="105.1,269.1 105.1,717.9 279.3,624.4 				"/>
				<polygon class="st6" points="720,624.4 882.5,269.1 882.5,717.9 				"/>
				<polygon class="st4" points="882.5,717.9 493.8,942.4 720,624.4 				"/>
				<polygon class="st5" points="493.8,942.4 720,624.4 279.3,624.4 				"/>
				<polygon class="st4" points="105.1,717.9 279.3,624.4 493.8,942.4 				"/>
				<polygon class="st6" points="105.1,269.1 499.7,242.8 493.8,44.6 				"/>
				<polygon class="st4" points="499.7,242.8 493.8,44.6 882.5,269.1 				"/>
			</g>
			<g>
				<path class="st2" d="M430,542.2h47.4c4.7,0,8.3,1,10.8,2.9c2.5,1.9,3.7,4.6,3.7,7.9c0,3-1,5.5-2.9,7.5c-2,2.1-5,3.1-8.9,3.1
					h-66.8c-4.5,0-8.1-1.3-10.6-3.8c-2.6-2.5-3.8-5.5-3.8-8.8c0-2.2,0.8-5.1,2.5-8.7c1.6-3.6,3.4-6.4,5.3-8.5
					c8-8.3,15.3-15.5,21.8-21.5c6.5-6,11.1-9.9,13.9-11.8c5-3.5,9.1-7,12.4-10.6c3.3-3.5,5.8-7.2,7.5-10.9c1.7-3.7,2.6-7.4,2.6-10.9
					c0-3.9-0.9-7.3-2.8-10.4s-4.4-5.4-7.5-7.1c-3.2-1.7-6.6-2.6-10.4-2.6c-7.9,0-14.2,3.5-18.7,10.4c-0.6,0.9-1.6,3.4-3,7.5
					c-1.4,4.1-3,7.2-4.8,9.3c-1.8,2.2-4.4,3.3-7.8,3.3c-3,0-5.5-1-7.5-3c-2-2-3-4.7-3-8.2c0-4.2,0.9-8.5,2.8-13.1
					c1.9-4.5,4.7-8.6,8.4-12.3c3.7-3.7,8.4-6.7,14.2-8.9c5.7-2.3,12.4-3.4,20.1-3.4c9.3,0,17.2,1.5,23.7,4.4c4.2,1.9,8,4.6,11.2,8
					c3.2,3.4,5.7,7.3,7.5,11.8c1.8,4.5,2.7,9.1,2.7,13.8c0,7.5-1.9,14.3-5.6,20.5c-3.7,6.1-7.5,10.9-11.4,14.4
					c-3.9,3.5-10.4,8.9-19.5,16.4c-9.1,7.5-15.4,13.2-18.7,17.3C432.9,538,431.5,540,430,542.2L430,542.2L430,542.2z"/>
				<path class="st2" d="M600.6,498.4c0,9.9-0.6,18.5-1.8,25.6c-1.2,7.1-3.4,13.6-6.7,19.4c-4.1,7.1-9.4,12.7-16,16.5
					s-13.8,5.8-21.8,5.8c-9.2,0-17.4-2.6-24.7-7.8c-7.3-5.2-12.8-12.4-16.5-21.6c-1.9-5-3.2-10.6-4.1-16.7s-1.3-12.7-1.3-19.7
					c0-9.1,0.5-17.4,1.5-24.7c1-7.3,2.5-13.6,4.5-18.9c3.6-8.7,8.8-15.4,15.6-19.9c6.8-4.6,14.9-6.9,24.4-6.9c6.2,0,11.9,1,17,3
					c5.1,2,9.5,5,13.4,8.9c3.8,3.9,7.1,8.7,9.8,14.5C598.3,466,600.6,480.1,600.6,498.4L600.6,498.4L600.6,498.4z M575.7,496.6
					c0-11.1-0.7-20.1-2-27.2c-1.3-7.1-3.6-12.4-6.7-16c-3.1-3.6-7.5-5.4-13.1-5.4c-8,0-13.5,4-16.7,12.1c-3.1,8-4.7,20.5-4.7,37.2
					c0,11.4,0.7,20.7,2,28c1.3,7.3,3.6,12.8,6.7,16.5c3.1,3.7,7.4,5.6,12.8,5.6s9.9-1.9,13.1-5.8c3.1-3.9,5.3-9.4,6.6-16.6
					C575.1,517.7,575.7,508.2,575.7,496.6L575.7,496.6L575.7,496.6z"/>
			</g>
			<g class="st7">
				<path class="st8" d="M306.6,406.8l21.7-37.6c2.2-3.7,4.6-6.2,7.3-7.3c2.7-1.1,5.3-0.9,8,0.7c2.4,1.4,3.9,3.3,4.6,5.8
					c0.7,2.5,0.2,5.3-1.7,8.5L315.9,430c-2.1,3.6-4.7,5.8-7.9,6.7c-3.2,0.9-6.1,0.5-8.8-1c-1.7-1-3.6-3-5.8-5.9
					c-2.1-2.9-3.5-5.7-4.3-8.1c-2.9-10.2-5.3-19.3-7.1-27.1c-1.8-7.9-2.8-13.3-3-16.4c-0.5-5.5-1.4-10.4-2.7-14.7
					c-1.3-4.2-3-7.9-5.2-11c-2.2-3.1-4.7-5.4-7.5-7.1c-3.1-1.8-6.2-2.6-9.5-2.6c-3.3,0.1-6.3,1-9.1,2.7c-2.8,1.7-5.1,4.1-6.8,7.1
					c-3.6,6.3-3.7,12.9-0.3,19.6c0.4,0.9,2,2.8,4.5,5.8c2.6,3,4.3,5.7,5.2,8.1c0.9,2.4,0.6,5-1,7.7c-1.4,2.4-3.3,3.9-5.8,4.6
					s-5.1,0.2-7.9-1.4c-3.3-1.9-6.4-4.7-9.1-8.2c-2.7-3.6-4.7-7.7-6-12.3c-1.2-4.7-1.4-9.8-0.6-15.3s3-11.4,6.5-17.5
					c4.3-7.4,9-13,14.3-16.8c3.5-2.5,7.3-4.2,11.5-5.2c4.2-1,8.4-1.2,12.8-0.6c4.3,0.6,8.4,2,12.2,4.2c6,3.4,10.5,8.1,13.7,13.8
					c3.2,5.8,5.3,11,6.2,15.7c1,4.7,2.4,12.3,4.1,23s3.5,18.3,5.2,22.8C304.6,402.5,305.5,404.6,306.6,406.8L306.6,406.8
					L306.6,406.8z"/>
			</g>
			<g class="st9">
				<path class="st8" d="M639.6,354.3l64.1-37c-16-6.6-25.3-12-27.7-16.2c-1.1-2-1.4-4.2-0.7-6.6c0.7-2.4,2.1-4.3,4.1-5.4
					c2.4-1.4,4.6-1.7,6.6-0.8c2,0.8,5,2.7,9,5.4c6,4.1,11.4,7.1,16.3,8.8s10,2.8,15.2,3.3c5.2,0.5,8.4,0.9,9.7,1.2
					c1.3,0.3,2.6,1.6,3.9,3.8c1.4,2.5,1.6,5,0.6,7.7c-1.1,2.6-3.3,4.9-6.7,6.9l-80.7,46.6c-9.4,5.5-16,5-19.7-1.5
					c-1.7-2.9-2-5.7-1.1-8.6C633.6,359,635.9,356.4,639.6,354.3L639.6,354.3L639.6,354.3z"/>
				<path class="st8" d="M685.1,434.7l13.1-7.6l-20.4-35.4c-2.6-4.5-3.5-8.4-2.8-11.8c0.7-3.4,2.8-6.1,6.3-8.1
					c0.9-0.5,1.9-0.9,3-1.1c1.1-0.2,2.4-0.3,3.7-0.2c1.4,0.1,2.8,0.2,4.1,0.4s3,0.4,5,0.6l71.5,8.5c4.7,0.5,8.2,1.2,10.6,1.9
					c2.4,0.7,4.2,2.2,5.5,4.4c4.1,7.1,2.1,13.1-6.1,17.8l-54.5,31.5l1.7,3c2.1,3.6,3.3,6.8,3.5,9.5c0.3,2.7-1.3,5.1-4.6,7
					c-2.7,1.6-5.2,1.8-7.5,0.8c-2.3-1.1-4.5-3.4-6.5-6.9l-2.5-4.3l-13.1,7.6c-3.6,2.1-6.8,2.8-9.5,2.3c-2.7-0.6-4.8-2.2-6.4-4.9
					s-1.9-5.3-1-8C679.4,439.1,681.6,436.7,685.1,434.7L685.1,434.7L685.1,434.7z M696.5,387.7L714,418l40.9-23.6L696.5,387.7
					L696.5,387.7z"/>
			</g>
			<g class="st9">
				<path class="st8" d="M532.4,778.6c0,5.5-1.5,10.6-4.5,15.4c-3,4.8-7.3,8.7-13.1,11.6c-5.8,2.9-12.5,4.3-20.2,4.3
					c-6.5,0-12.2-0.8-17.1-2.5c-4.9-1.7-9-4-12.3-7c-3.3-3-5.7-6.3-7.3-10.1c-1.6-3.7-2.4-7.7-2.4-11.9c0-5.3,1.4-10.1,4.1-14.3
					c2.8-4.2,6.9-7.6,12.3-10.3c-4.7-1.8-8.5-4.2-11.5-7.1c-3-2.9-5.4-6.3-6.9-10.2c-1.6-3.9-2.3-8.1-2.3-12.8
					c0-6.9,1.7-13.1,5-18.7c3.3-5.6,8.2-10,14.7-13.1c6.4-3.2,14-4.8,22.8-4.8s16.8,1.6,23.3,4.8c6.4,3.2,11.3,7.5,14.6,13.1
					c3.3,5.5,4.9,11.8,4.9,18.6c0,14.7-6.9,24.8-20.8,30.2C526.8,759,532.4,767.3,532.4,778.6L532.4,778.6L532.4,778.6z
					 M473.6,724.4c0,4.3,0.9,8,2.6,11.1c1.7,3.2,4.2,5.6,7.4,7.3c3.2,1.7,6.7,2.5,10.6,2.5c5.6,0,10.2-1.9,14-5.6
					c3.8-3.7,5.6-8.9,5.6-15.6c0-4.3-0.9-8-2.7-11.2c-1.8-3.2-4.2-5.8-7.3-7.5c-3-1.8-6.5-2.7-10.2-2.7s-7.3,0.9-10.3,2.7
					c-3,1.8-5.5,4.3-7.2,7.6C474.5,716.4,473.6,720.2,473.6,724.4L473.6,724.4L473.6,724.4z M494.1,794.4c5.1,0,9.3-1.6,12.4-4.8
					c3.1-3.2,4.7-7.3,4.7-12.3c0-4.7-1.6-8.5-4.8-11.6c-3.2-3.1-7.4-4.6-12.5-4.6c-2.6,0-4.9,0.4-7,1.2c-2.1,0.8-3.9,2-5.4,3.4
					s-2.7,3.2-3.5,5.2c-0.8,2-1.2,4.2-1.2,6.6c0,3.2,0.7,6.1,2.2,8.7c1.5,2.6,3.5,4.6,6.1,6.1C487.7,793.6,490.7,794.3,494.1,794.4
					L494.1,794.4L494.1,794.4z"/>
			</g>
		</g>
	</g>
</g>
<g>
	<g>
		<path class="st10" d="M1263.5,102.8h-30.2c-1.5,0-2.7-0.5-3.7-1.6c-0.9-1.1-1.4-2.4-1.4-3.9c0-1.8,1.7-3.8,5-6h150.2
			c1.5,0,2.8,0.5,3.9,1.6c1.1,1.1,1.6,2.4,1.6,3.9c0,1.8-0.5,3.3-1.6,4.4c-1.1,1.1-2.4,1.6-3.9,1.6h-24.7v562.4
			c0,36-11.2,65.3-33.7,87.9c-22.4,22.6-51.4,33.9-86.8,33.9c-31.5,0-57.1-10.3-76.9-30.9c-19.9-20.6-29.8-48.6-29.8-84
			c0-30.2,5.3-52.1,15.8-65.5c10.5-13.4,22.7-20.2,36.4-20.2c11.3,0,21.2,5.2,29.8,15.6c8.5,10.4,12.8,25.3,12.8,44.9
			c0,18.6-4.1,32.7-12.1,42.4c-8.1,9.6-17.6,14.4-28.6,14.4c-4.3,0-9.4-0.9-15.3-2.7s-10.5-2.7-13.5-2.7c-2.1,0-3.8,0.8-5,2.3
			c-1.8,2.1-2.7,5-2.7,8.7c0,15,7.3,29.5,22,43.7s29.9,21.3,45.8,21.3c13.1,0,23.5-4.7,31.1-14.2c10.4-13.1,15.6-31.3,15.6-54.5
			V102.8z"/>
		<path class="st10" d="M1434.8,300.2h-17.3c-2.8-1.8-4.2-3.5-4.2-5.3c0-2.1,1.4-4.1,4.1-6.2h99.4v459.8c0,3.7,0.9,6.4,2.8,8.2
			c1.9,1.8,4.5,2.7,7.9,2.7c6.8,0,13.6-4.9,20.5-14.7c10.7-15.3,16-33.9,16-55.9V300.2h-17.9c-1.5,0-2.7-0.4-3.4-1.3
			c-0.8-0.9-1.1-2.3-1.1-4.4c0-1.8,0.4-3.2,1.1-4.2c0.8-1,1.9-1.5,3.4-1.5h99.9v480h15.6c1.5,0,2.8,0.5,3.9,1.5
			c1.1,1,1.6,2.4,1.6,4.2s-0.5,3.2-1.6,4.2c-1.1,1-2.4,1.5-3.9,1.5h-97.6v-36.6c-9.8,15.6-19.8,26.5-30.1,32.7
			c-10.3,6.3-22.4,9.4-36.5,9.4c-20.5,0-36.1-5.4-46.7-16.3c-10.6-10.9-15.9-25.4-15.9-43.8V300.2z"/>
		<path class="st10" d="M1777.4,536v170.4c0,26.6,3,44.1,9.2,52.7c4.6,6.4,12.1,9.6,22.4,9.6c17.1,0,32.4-9.6,45.8-28.9
			c22.3-32.4,34.2-76.5,35.7-132.4c0.3-18.3,1.1-28.7,2.5-31.1c1.4-2.4,3.3-3.7,5.7-3.7c2.1,0,3.8,0.9,5,2.7
			c1.5,2.4,2.3,8.2,2.3,17.4c0,54.4-9.5,100.1-28.6,137.2c-19.1,37.1-44.8,55.6-77.2,55.6c-30.2,0-55.3-14.3-75.1-42.8
			c-19.9-28.5-29.8-90.5-29.8-185.7v-67.3c0-73,13.4-128.4,40.3-166.3c19.2-26.9,42.4-40.3,69.6-40.3c32.4,0,57.3,17.3,74.9,51.8
			c17.6,34.5,26.3,76.5,26.3,126V536H1777.4z M1824.6,523.7V328.6c0-12.5-2.4-22-7.3-28.4c-3.3-4.6-8.3-6.9-15-6.9
			s-12.5,2.9-17.5,8.7c-5,5.8-7.5,14.7-7.5,26.6v195.1H1824.6z"/>
		<path class="st10" d="M2019.5,678.9c-18.6-17.4-32.1-38-40.7-61.8c-11.9-33.6-17.8-77.1-17.8-130.5c0-76.3,12.2-131.6,36.7-165.8
			c17.7-25,41-37.6,69.7-37.6c18.4,0,35,6.4,50,19.2c7-14.3,14.8-25.1,23.3-32.3c8.5-7.2,17.8-10.8,27.9-10.8
			c10.6,0,19.3,3.6,25.8,10.8c6.5,7.2,9.8,17.4,9.8,30.6c0,11.4-2.3,19.9-6.9,25.6c-4.6,5.7-9.8,8.5-15.6,8.5
			c-6.4,0-11.6-2.2-15.6-6.6c-4-4.4-6-10.9-6-19.5v-5c0.3-2.7,0.5-5,0.5-6.9c0-5.2-0.8-8.7-2.5-10.5c-1.7-1.8-4-2.7-7.1-2.7
			c-4.3,0-8.5,2.4-12.7,7.3c-4.3,4.9-8.3,12.4-12.3,22.4c28.9,36.9,43.3,96.9,43.3,179.8c0,72.3-12.4,125.8-37.2,160.6
			c-18.4,25.6-40.6,38.4-66.6,38.4c-4,0-9-0.2-15.2-0.5c-3.7-0.3-13.3-0.5-28.9-0.5c-18.7,0-31.9,2.7-39.7,8.2
			c-7.8,5.5-11.7,10.8-11.7,16c0,4.9,2.1,8.9,6.4,11.9c6.1,4.3,15.8,6.4,28.9,6.4h73c35.8,0,61.9,8.1,78.3,24.3
			c16.4,16.2,24.6,41.1,24.6,74.7c0,36.6-10.8,65.4-32.5,86.3c-21.6,20.9-51.8,31.4-90.5,31.4c-39,0-68.6-8.2-88.7-24.5
			c-20.1-16.3-30.2-35-30.2-56.1c0-13.1,3.1-25.4,9.4-36.9c6.3-11.5,15.5-22.1,27.7-31.8c-9.8-6.4-17.2-14.1-22.3-23.1
			s-7.6-19.3-7.6-30.9c0-20.2,5.4-35.6,16.1-46.5C1973.7,689.9,1992.5,682.6,2019.5,678.9z M1986.3,808.1
			c-8.1,7.9-14.2,16-18.2,24.3s-6.1,16.5-6.1,24.7c0,15.9,8.7,30.8,26,44.7c17.4,13.9,42.2,20.8,74.5,20.8
			c32.9,0,59.7-8.1,80.4-24.3c15.5-12.8,23.3-27.8,23.3-44.9c0-12.8-4.3-22.3-12.8-28.4c-11.6-7.9-35-11.9-70.1-11.9h-18.8
			C2034.1,813.1,2008,811.5,1986.3,808.1z M2087.5,329.5c0-14.7-1.9-24.4-5.8-29.3c-3.9-4.9-9.3-7.3-16.4-7.3
			c-6.8,0-12.3,2.7-16.7,8c-4.3,5.3-6.5,14.9-6.5,28.6v304.6c0,18,2.8,30.8,8.3,38.5c4,5.5,9.4,8.2,16.2,8.2c6.2,0,11.2-2.4,15-7.3
			c3.8-4.9,5.8-13.4,5.8-25.6V329.5z"/>
		<path class="st10" d="M2231.3,568.1v-89.8c0-71.8,12.1-124.4,36.2-158c17.7-24.7,40.3-37.1,67.8-37.1c34.5,0,61,18.2,79.5,54.5
			c18.5,36.3,27.7,84.4,27.7,144.3v99.4c0,77.9-11.9,133.7-35.7,167.6c-17.1,24.4-39.8,36.6-68.2,36.6c-16.5,0-31.5-4.3-45.1-12.8
			c-13.6-8.5-25.9-24-36.9-46.3c-11-22.3-17.9-51.9-20.8-88.9C2232.7,600.8,2231.3,577.6,2231.3,568.1z M2360.4,342.3
			c0-17.1-2.5-29.1-7.5-36c-5-6.9-10.8-10.3-17.5-10.3c-5.7,0-10.9,2.8-15.4,8.5c-4.5,5.7-6.8,14.3-6.8,25.9v384.7
			c0,24.1,2.7,40.5,8.2,49c4.2,6.1,10,9.2,17.2,9.2c6.9,0,12.3-2.7,16.1-8c3.8-5.3,5.7-16.9,5.7-34.6V342.3z"/>
		<path class="st10" d="M2521.2,749.5c-5.8,4.6-12.8,12.5-21.1,23.8c-6.1,8.2-10.7,12.4-13.7,12.4c-1.2,0-2.3-0.5-3.2-1.4
			c-0.9-0.9-1.4-2.3-1.4-4.1V565.8c0-2.1,0.5-3.7,1.6-4.8c1.1-1.1,2.4-1.6,3.9-1.6c1.8,0,3.2,0.6,4.1,1.8c0.9,1.2,1.7,6.1,2.3,14.6
			c4,59.1,14,108.5,30.2,148.1c11.6,28.6,25.3,43,41.2,43c7.9,0,15.1-3.9,21.5-11.7c6.4-7.8,9.6-19,9.6-33.7
			c0-16.8-3.6-37.3-10.8-61.6c-7.2-24.3-22.3-61.8-45.3-112.7c-23.1-50.8-37.9-87.6-44.4-110.2c-6.6-22.6-9.8-42.4-9.8-59.5
			c0-28.1,7.7-50.8,23.1-68.2c15.4-17.4,33.4-26.1,53.8-26.1c18.3,0,36,8.4,53.1,25.2c4.6-3.1,11.5-9.2,20.6-18.2
			c5.2-4.7,8.7-7,10.5-7c1.2,0,2.3,0.3,3.2,0.9c0.9,1.2,1.4,2.6,1.4,4.1v193.3c0,2.1-0.6,3.8-1.8,5c-1.2,1.2-2.6,1.8-4.1,1.8
			c-1.8,0-3.2-0.8-4.1-2.3s-1.7-6.1-2.3-13.7c-4-56.3-12.5-102-25.6-137.1c-9.5-24.4-21.8-36.6-37.1-36.6c-8.6,0-15.7,3.2-21.5,9.6
			c-5.8,6.4-8.7,15.1-8.7,26.1c0,27.8,18.2,78,54.5,150.7c24.4,48.2,41.1,86.7,49.9,115.4c8.9,28.7,13.3,54,13.3,76
			c0,33.3-8.6,59.8-25.6,79.5c-17.1,19.7-36.9,29.5-59.5,29.5c-11.6,0-21.8-2.7-30.5-8S2530.7,762.9,2521.2,749.5z"/>
		<path class="st10" d="M2931.8,100.9h50.5l81.7,667.8h20.6c3.4,2.1,5,4,5,5.7s-1.7,3.7-5,5.7h-137.9c-1.5,0-2.7-0.5-3.7-1.5
			s-1.4-2.4-1.4-4.2s0.5-3.2,1.4-4.2c0.9-1,2.1-1.5,3.7-1.5h22l-11.9-130.5h-84.1l-9.5,73.7c-0.3,4-0.5,8.1-0.5,12.4
			c0,13.4,2.5,23.6,7.6,30.5c5.1,6.9,12,11.1,20.9,12.6l7.4,2.3c1.2,1.2,1.8,2.7,1.8,4.6c0,1.8-0.5,3.3-1.6,4.4
			c-1.1,1.1-2.4,1.6-3.9,1.6h-78.3c-1.5,0-2.8-0.5-3.9-1.6c-1.1-1.1-1.6-2.5-1.6-4.4c0-1.8,0.5-3.4,1.4-4.6l5.5-1.8
			c8.9-1.2,15.7-5.2,20.6-11.9c7.3-10.7,12.5-28.4,15.6-53.1L2931.8,100.9z M2919.9,271.8l-45.7,354.5h80.5L2919.9,271.8z"/>
		<path class="st10" d="M3130.8,300.2h-19.2c-1.8,0-3.3-0.5-4.4-1.5c-1.1-1-1.6-2.4-1.6-4.2s0.5-3.2,1.6-4.2c1.1-1,2.5-1.5,4.4-1.5
			h99.8v60.5c10.4-27.5,20.1-45.3,29.1-53.6c9-8.2,18.5-12.4,28.6-12.4c13.7,0,26.1,6.9,37.1,20.6c14,17.7,21.1,40,21.1,66.9
			c0,22.9-4.7,40.2-14,52c-9.3,11.8-19.6,17.6-30.9,17.6c-9.2,0-16.8-4-22.9-11.9c-8.2-10.7-12.4-26-12.4-45.8
			c0-19.5,5.8-38.3,17.4-56.3c5.8-9.2,8.7-15.4,8.7-18.8c0-2.7-1.1-5.1-3.2-7.1c-2.1-2-4.7-3-7.8-3c-5.8,0-11.3,2.8-16.5,8.3
			c-8.9,9.2-16.8,25.8-23.8,49.7c-7,24-10.5,51.3-10.5,81.8v331.5h23.4c2.1,0,3.8,0.6,5,1.8c1.2,1.2,1.8,2.5,1.8,4l-1.4,4
			c-1.8,1.2-3.7,1.8-5.5,1.8h-123.2c-1.5,0-2.8-0.5-3.9-1.5c-1.1-1-1.6-2.4-1.6-4.2s0.5-3.2,1.6-4.2c1.1-1,2.4-1.5,3.9-1.5h19.2
			V300.2z"/>
		<path class="st10" d="M3449.1,91.3v452.1l90.7-186c5.5-11.3,8.2-21.2,8.2-29.8c0-7-1.8-12.8-5.5-17.4c-3.7-4.6-8.7-7.5-15.1-8.7
			l-17.4-1.4c-1.8-0.9-2.7-2.6-2.7-5c0-1.8,0.5-3.4,1.6-4.6c1.1-1.2,2.5-1.8,4.4-1.8h101.7c1.8,0,3.3,0.6,4.4,1.8
			c1.1,1.2,1.6,2.7,1.6,4.6c0,2.4-0.6,4.1-1.8,5l-13.7,0.9c-5.2,0.3-9.9,1.2-14.2,2.7c-7.3,3.1-13.7,8.4-19.2,16
			c-3.4,4.9-10.7,19-21.9,42.5l-46.1,92.7l99.6,313.7h15.6c1.8,0,3.4,0.5,4.6,1.5c1.2,1,1.8,2.4,1.8,4.2l-1.4,4
			c-1.5,1.2-3.2,1.8-5,1.8h-119.8c-1.8,0-3.3-0.5-4.4-1.5c-1.1-1-1.6-2.4-1.6-4.2s0.5-3.2,1.6-4.2c1.1-1,2.5-1.5,4.4-1.5h22.4
			l-72.5-225.3v225.3h18.3c3.4,2.1,5,4,5,5.7s-1.7,3.7-5,5.7h-118.2c-1.8,0-3.3-0.5-4.4-1.5c-1.1-1-1.6-2.4-1.6-4.2s0.6-3.2,1.8-4.2
			c1.2-1,2.6-1.5,4.1-1.5h16.9v-666h-16.9c-1.5,0-2.8-0.5-3.9-1.6c-1.1-1.1-1.6-2.4-1.6-3.9c0-1.8,0.5-3.3,1.6-4.4
			c1.1-1.1,2.4-1.6,3.9-1.6H3449.1z"/>
		<path class="st10" d="M3745.5,91.3v235c12.5-16.8,23.7-28.2,33.4-34.1c9.8-6,21.2-8.9,34.4-8.9c20.5,0,35,5.4,43.5,16
			c12.2,14.4,18.3,36.8,18.3,67.4v402.1h16.8c3.1,2.1,4.7,4,4.7,5.7s-1.5,3.7-4.6,5.7h-109.9c-2.1-1.8-3.2-3.7-3.2-5.7
			c0-2.1,1.1-4,3.3-5.7h10.9V342.3c0-11-1.4-18.6-4.2-22.9c-2.5-3.1-5.9-4.6-10.2-4.6c-7.1,0-13.8,4.3-20,12.8
			c-8.9,12.8-13.3,30.1-13.3,51.8v389.3h12.4c3,2.1,4.6,4,4.6,5.7s-1.5,3.7-4.6,5.7h-113.1l-2.3-1.3l-1.4-4.4c0-2.1,1.2-4,3.7-5.7
			h20.6v-666h-20.6c-3.1-1.8-4.6-3.7-4.6-5.5c0-2.1,1.5-4.1,4.6-6H3745.5z"/>
		<path class="st10" d="M3948.8,337.3c4.3-1.5,8.4-2.7,12.4-3.4c4-0.8,7.6-1.1,11-1.1c12.2,0,22.5,4.4,30.9,13.3
			c8.4,8.9,12.6,20.5,12.6,34.8c0,14.7-4.3,26.4-12.8,35.3c-8.6,8.9-20,13.3-34.4,13.3c-14.4,0-25.6-4.5-33.9-13.5
			c-8.2-9-12.4-22.4-12.4-40.1c0-26.3,9.9-48.2,29.8-66c19.8-17.7,48.1-26.6,84.7-26.6c33,0,56.7,6.2,71.2,18.5
			c14.5,12.4,21.8,28.2,21.8,47.4v395.7c0,4.6,1.2,8.3,3.7,11.2c2.4,2.9,5,4.4,7.8,4.4c7.6,0,15.4-8.1,23.4-24.3
			c2.1-4.9,4.3-7.3,6.4-7.3l5.5,5c0,10.7-6.9,22-20.6,33.9c-13.7,11.9-30.2,17.9-49.5,17.9c-16.5,0-29.2-3.8-38.2-11.5
			c-9-7.6-15.8-21.1-20.4-40.3c-14,20.8-26.3,34.6-36.9,41.5c-10.5,6.9-23,10.3-37.3,10.3c-17.4,0-30.8-4.5-40.1-13.5
			c-9.3-9-14-20.8-14-35.5V564c0-18.6,4-32.4,12.1-41.2c8.1-8.9,32-19.8,71.7-33c17.7-6.1,32.5-12.2,44.4-18.3V339.6
			c0-13.7-3.6-24.4-10.8-32.1c-7.2-7.6-16.6-11.5-28.2-11.5C3982,296,3962,309.8,3948.8,337.3z M4047.8,485.7
			c-19.5,7.6-32.1,15.3-37.8,22.9c-5.7,7.6-8.5,19.9-8.5,36.6v193.7c0,6.4,1.1,11.1,3.4,14.2c2.3,3.1,5.1,4.6,8.5,4.6
			c4.9,0,10.4-5.2,16.5-15.6c11.9-19.2,17.9-42.4,17.9-69.6V485.7z"/>
		<path class="st10" d="M4283.7,768.7l11,0.9c1.5,0.9,2.3,2.5,2.3,4.8c0,1.8-1.5,3.7-4.6,5.7h-108.6c-3.1-2.1-4.6-4-4.6-5.7
			s1.5-3.7,4.6-5.7h17.9V300.2h-17.9c-3.1-1.8-4.6-3.5-4.6-5.3c0-2.1,1.5-4.1,4.6-6.2h99.8v36.7c11-16.5,21.1-27.6,30.2-33.4
			c9.2-5.8,21.2-8.7,36.2-8.7c16.8,0,29.5,3.4,38.2,10.3c8.7,6.9,16.1,19.8,22.2,38.7c9.8-19.2,19.2-32.2,28.4-38.9
			c9.2-6.7,21.7-10.1,37.6-10.1c21.7,0,37.6,5.1,47.9,15.4c10.2,10.2,15.3,24.8,15.3,43.8v426.4h15.1c1.8,0,3.4,0.5,4.6,1.5
			c1.2,1,1.8,2.4,1.8,4.2l-1.4,4c-1.5,1.2-3.2,1.8-5.1,1.8h-106.7c-3.1-2.1-4.6-4-4.6-5.7s1.5-3.7,4.6-5.7h9.6V325.4
			c0-5.2-1.3-9.3-3.9-12.4c-2.6-3.1-5.4-4.6-8.4-4.6c-6.7,0-13.2,5-19.5,15.1c-10.3,16.2-15.4,38.8-15.4,67.9v377.3h10.1l2.7,1.3
			c0.9,1.2,1.4,2.6,1.4,4.4s-1.4,3.7-4.1,5.7h-103.1c-2.4-1.8-3.7-3.7-3.7-5.7c0-2.1,1.2-4,3.7-5.7h12.4V332.2
			c0-8.3-1.4-14.1-4.1-17.6c-2.7-3.5-6-5.3-9.6-5.3c-6.1,0-11.8,3.8-16.9,11.5c-10.4,15.9-15.6,33.3-15.6,52.3V768.7z"/>
	</g>
	<g>
		<path class="st2" d="M1263.5,91.1h-30.2c-1.5,0-2.7-0.5-3.7-1.6c-0.9-1.1-1.4-2.4-1.4-3.9c0-1.8,1.7-3.8,5-6h150.2
			c1.5,0,2.8,0.5,3.9,1.6c1.1,1.1,1.6,2.4,1.6,3.9c0,1.8-0.5,3.3-1.6,4.4c-1.1,1.1-2.4,1.6-3.9,1.6h-24.7v562.4
			c0,36-11.2,65.3-33.7,87.9c-22.4,22.6-51.4,33.9-86.8,33.9c-31.5,0-57.1-10.3-76.9-30.9c-19.9-20.6-29.8-48.6-29.8-84
			c0-30.2,5.3-52.1,15.8-65.5c10.5-13.4,22.7-20.2,36.4-20.2c11.3,0,21.2,5.2,29.8,15.6c8.5,10.4,12.8,25.3,12.8,44.9
			c0,18.6-4.1,32.7-12.1,42.4c-8.1,9.6-17.6,14.4-28.6,14.4c-4.3,0-9.4-0.9-15.3-2.7c-6-1.8-10.5-2.7-13.5-2.7c-2.1,0-3.8,0.8-5,2.3
			c-1.8,2.1-2.7,5-2.7,8.7c0,15,7.3,29.5,22,43.7s29.9,21.3,45.8,21.3c13.1,0,23.5-4.7,31.1-14.2c10.4-13.1,15.6-31.3,15.6-54.5
			V91.1z"/>
		<path class="st2" d="M1434.8,288.5h-17.3c-2.8-1.8-4.2-3.5-4.2-5.3c0-2.1,1.4-4.1,4.1-6.2h99.4v459.8c0,3.7,0.9,6.4,2.8,8.2
			c1.9,1.8,4.5,2.7,7.9,2.7c6.8,0,13.6-4.9,20.5-14.7c10.7-15.3,16-33.9,16-55.9V288.5h-17.9c-1.5,0-2.7-0.4-3.4-1.3
			c-0.8-0.9-1.1-2.3-1.1-4.4c0-1.8,0.4-3.2,1.1-4.2c0.8-1,1.9-1.5,3.4-1.5h99.9v480h15.6c1.5,0,2.8,0.5,3.9,1.5
			c1.1,1,1.6,2.4,1.6,4.2s-0.5,3.2-1.6,4.2c-1.1,1-2.4,1.5-3.9,1.5h-97.6v-36.6c-9.8,15.6-19.8,26.5-30.1,32.7
			c-10.3,6.3-22.4,9.4-36.5,9.4c-20.5,0-36.1-5.4-46.7-16.3c-10.6-10.9-15.9-25.4-15.9-43.8V288.5z"/>
		<path class="st2" d="M1777.4,524.4v170.4c0,26.6,3,44.1,9.2,52.7c4.6,6.4,12.1,9.6,22.4,9.6c17.1,0,32.4-9.6,45.8-28.9
			c22.3-32.4,34.2-76.5,35.7-132.4c0.3-18.3,1.1-28.7,2.5-31.1c1.4-2.4,3.3-3.7,5.7-3.7c2.1,0,3.8,0.9,5,2.7
			c1.5,2.4,2.3,8.2,2.3,17.4c0,54.4-9.5,100.1-28.6,137.2c-19.1,37.1-44.8,55.6-77.2,55.6c-30.2,0-55.3-14.3-75.1-42.8
			c-19.9-28.5-29.8-90.5-29.8-185.7v-67.3c0-73,13.4-128.4,40.3-166.3c19.2-26.9,42.4-40.3,69.6-40.3c32.4,0,57.3,17.3,74.9,51.8
			c17.6,34.5,26.3,76.5,26.3,126v75.1H1777.4z M1824.6,512.1V316.9c0-12.5-2.4-22-7.3-28.4c-3.3-4.6-8.3-6.9-15-6.9
			s-12.5,2.9-17.5,8.7c-5,5.8-7.5,14.7-7.5,26.6v195.1H1824.6z"/>
		<path class="st2" d="M2019.5,667.3c-18.6-17.4-32.1-38-40.7-61.8c-11.9-33.6-17.8-77.1-17.8-130.5c0-76.3,12.2-131.6,36.7-165.8
			c17.7-25,41-37.6,69.7-37.6c18.4,0,35,6.4,50,19.2c7-14.3,14.8-25.1,23.3-32.3c8.5-7.2,17.8-10.8,27.9-10.8
			c10.6,0,19.3,3.6,25.8,10.8c6.5,7.2,9.8,17.4,9.8,30.6c0,11.4-2.3,19.9-6.9,25.6c-4.6,5.7-9.8,8.5-15.6,8.5
			c-6.4,0-11.6-2.2-15.6-6.6c-4-4.4-6-10.9-6-19.5v-5c0.3-2.7,0.5-5,0.5-6.9c0-5.2-0.8-8.7-2.5-10.5c-1.7-1.8-4-2.7-7.1-2.7
			c-4.3,0-8.5,2.4-12.7,7.3c-4.3,4.9-8.3,12.4-12.3,22.4c28.9,36.9,43.3,96.9,43.3,179.8c0,72.3-12.4,125.8-37.2,160.6
			c-18.4,25.6-40.6,38.4-66.6,38.4c-4,0-9-0.2-15.2-0.5c-3.7-0.3-13.3-0.5-28.9-0.5c-18.7,0-31.9,2.7-39.7,8.2
			c-7.8,5.5-11.7,10.8-11.7,16c0,4.9,2.1,8.9,6.4,11.9c6.1,4.3,15.8,6.4,28.9,6.4h73c35.8,0,61.9,8.1,78.3,24.3
			c16.4,16.2,24.6,41.1,24.6,74.7c0,36.6-10.8,65.4-32.5,86.3c-21.6,20.9-51.8,31.4-90.5,31.4c-39,0-68.6-8.2-88.7-24.5
			c-20.1-16.3-30.2-35-30.2-56.1c0-13.1,3.1-25.4,9.4-36.9c6.3-11.5,15.5-22.1,27.7-31.8c-9.8-6.4-17.2-14.1-22.3-23.1
			s-7.6-19.3-7.6-30.9c0-20.2,5.4-35.6,16.1-46.5C1973.7,678.2,1992.5,671,2019.5,667.3z M1986.3,796.5c-8.1,7.9-14.2,16-18.2,24.3
			s-6.1,16.5-6.1,24.7c0,15.9,8.7,30.8,26,44.7c17.4,13.9,42.2,20.8,74.5,20.8c32.9,0,59.7-8.1,80.4-24.3
			c15.5-12.8,23.3-27.8,23.3-44.9c0-12.8-4.3-22.3-12.8-28.4c-11.6-7.9-35-11.9-70.1-11.9h-18.8
			C2034.1,801.5,2008,799.8,1986.3,796.5z M2087.5,317.9c0-14.7-1.9-24.4-5.8-29.3c-3.9-4.9-9.3-7.3-16.4-7.3
			c-6.8,0-12.3,2.7-16.7,8c-4.3,5.3-6.5,14.9-6.5,28.6v304.6c0,18,2.8,30.8,8.3,38.5c4,5.5,9.4,8.2,16.2,8.2c6.2,0,11.2-2.4,15-7.3
			c3.8-4.9,5.8-13.4,5.8-25.6V317.9z"/>
		<path class="st2" d="M2231.3,556.5v-89.8c0-71.8,12.1-124.4,36.2-158c17.7-24.7,40.3-37.1,67.8-37.1c34.5,0,61,18.2,79.5,54.5
			c18.5,36.3,27.7,84.4,27.7,144.3v99.4c0,77.9-11.9,133.7-35.7,167.6c-17.1,24.4-39.8,36.6-68.2,36.6c-16.5,0-31.5-4.3-45.1-12.8
			c-13.6-8.5-25.9-24-36.9-46.3c-11-22.3-17.9-51.9-20.8-88.9C2232.7,589.2,2231.3,565.9,2231.3,556.5z M2360.4,330.7
			c0-17.1-2.5-29.1-7.5-36c-5-6.9-10.8-10.3-17.5-10.3c-5.7,0-10.9,2.8-15.4,8.5c-4.5,5.7-6.8,14.3-6.8,25.9v384.7
			c0,24.1,2.7,40.5,8.2,49c4.2,6.1,10,9.2,17.2,9.2c6.9,0,12.3-2.7,16.1-8c3.8-5.3,5.7-16.9,5.7-34.6V330.7z"/>
		<path class="st2" d="M2521.2,737.9c-5.8,4.6-12.8,12.5-21.1,23.8c-6.1,8.2-10.7,12.4-13.7,12.4c-1.2,0-2.3-0.5-3.2-1.4
			c-0.9-0.9-1.4-2.3-1.4-4.1V554.2c0-2.1,0.5-3.7,1.6-4.8c1.1-1.1,2.4-1.6,3.9-1.6c1.8,0,3.2,0.6,4.1,1.8s1.7,6.1,2.3,14.6
			c4,59.1,14,108.5,30.2,148.1c11.6,28.6,25.3,43,41.2,43c7.9,0,15.1-3.9,21.5-11.7c6.4-7.8,9.6-19,9.6-33.7
			c0-16.8-3.6-37.3-10.8-61.6c-7.2-24.3-22.3-61.8-45.3-112.7c-23.1-50.8-37.9-87.6-44.4-110.2c-6.6-22.6-9.8-42.4-9.8-59.5
			c0-28.1,7.7-50.8,23.1-68.2c15.4-17.4,33.4-26.1,53.8-26.1c18.3,0,36,8.4,53.1,25.2c4.6-3.1,11.5-9.2,20.6-18.2
			c5.2-4.7,8.7-7,10.5-7c1.2,0,2.3,0.3,3.2,0.9c0.9,1.2,1.4,2.6,1.4,4.1v193.3c0,2.1-0.6,3.8-1.8,5c-1.2,1.2-2.6,1.8-4.1,1.8
			c-1.8,0-3.2-0.8-4.1-2.3c-0.9-1.5-1.7-6.1-2.3-13.7c-4-56.3-12.5-102-25.6-137.1c-9.5-24.4-21.8-36.6-37.1-36.6
			c-8.6,0-15.7,3.2-21.5,9.6c-5.8,6.4-8.7,15.1-8.7,26.1c0,27.8,18.2,78,54.5,150.7c24.4,48.2,41.1,86.7,49.9,115.4
			c8.9,28.7,13.3,54,13.3,76c0,33.3-8.6,59.8-25.6,79.5c-17.1,19.7-36.9,29.5-59.5,29.5c-11.6,0-21.8-2.7-30.5-8
			C2539.8,760.7,2530.7,751.3,2521.2,737.9z"/>
		<path class="st2" d="M2931.8,89.3h50.5l81.7,667.8h20.6c3.4,2.1,5,4,5,5.7s-1.7,3.7-5,5.7h-137.9c-1.5,0-2.7-0.5-3.7-1.5
			c-0.9-1-1.4-2.4-1.4-4.2s0.5-3.2,1.4-4.2c0.9-1,2.1-1.5,3.7-1.5h22l-11.9-130.5h-84.1l-9.5,73.7c-0.3,4-0.5,8.1-0.5,12.4
			c0,13.4,2.5,23.6,7.6,30.5c5.1,6.9,12,11.1,20.9,12.6l7.4,2.3c1.2,1.2,1.8,2.7,1.8,4.6c0,1.8-0.5,3.3-1.6,4.4
			c-1.1,1.1-2.4,1.6-3.9,1.6h-78.3c-1.5,0-2.8-0.5-3.9-1.6c-1.1-1.1-1.6-2.5-1.6-4.4c0-1.8,0.5-3.4,1.4-4.6l5.5-1.8
			c8.9-1.2,15.7-5.2,20.6-11.9c7.3-10.7,12.5-28.4,15.6-53.1L2931.8,89.3z M2919.9,260.1l-45.7,354.5h80.5L2919.9,260.1z"/>
		<path class="st2" d="M3130.8,288.5h-19.2c-1.8,0-3.3-0.5-4.4-1.5c-1.1-1-1.6-2.4-1.6-4.2s0.5-3.2,1.6-4.2c1.1-1,2.5-1.5,4.4-1.5
			h99.8v60.5c10.4-27.5,20.1-45.3,29.1-53.6c9-8.2,18.5-12.4,28.6-12.4c13.7,0,26.1,6.9,37.1,20.6c14,17.7,21.1,40,21.1,66.9
			c0,22.9-4.7,40.2-14,52c-9.3,11.8-19.6,17.6-30.9,17.6c-9.2,0-16.8-4-22.9-11.9c-8.2-10.7-12.4-26-12.4-45.8
			c0-19.5,5.8-38.3,17.4-56.3c5.8-9.2,8.7-15.4,8.7-18.8c0-2.7-1.1-5.1-3.2-7.1c-2.1-2-4.7-3-7.8-3c-5.8,0-11.3,2.8-16.5,8.3
			c-8.9,9.2-16.8,25.8-23.8,49.7c-7,24-10.5,51.3-10.5,81.8v331.5h23.4c2.1,0,3.8,0.6,5,1.8c1.2,1.2,1.8,2.5,1.8,4l-1.4,4
			c-1.8,1.2-3.7,1.8-5.5,1.8h-123.2c-1.5,0-2.8-0.5-3.9-1.5c-1.1-1-1.6-2.4-1.6-4.2s0.5-3.2,1.6-4.2c1.1-1,2.4-1.5,3.9-1.5h19.2
			V288.5z"/>
		<path class="st2" d="M3449.1,79.7v452.1l90.7-186c5.5-11.3,8.2-21.2,8.2-29.8c0-7-1.8-12.8-5.5-17.4c-3.7-4.6-8.7-7.5-15.1-8.7
			l-17.4-1.4c-1.8-0.9-2.7-2.6-2.7-5c0-1.8,0.5-3.4,1.6-4.6c1.1-1.2,2.5-1.8,4.4-1.8h101.7c1.8,0,3.3,0.6,4.4,1.8
			c1.1,1.2,1.6,2.7,1.6,4.6c0,2.4-0.6,4.1-1.8,5l-13.7,0.9c-5.2,0.3-9.9,1.2-14.2,2.7c-7.3,3.1-13.7,8.4-19.2,16
			c-3.4,4.9-10.7,19-21.9,42.5l-46.1,92.7l99.6,313.7h15.6c1.8,0,3.4,0.5,4.6,1.5c1.2,1,1.8,2.4,1.8,4.2l-1.4,4
			c-1.5,1.2-3.2,1.8-5,1.8h-119.8c-1.8,0-3.3-0.5-4.4-1.5c-1.1-1-1.6-2.4-1.6-4.2s0.5-3.2,1.6-4.2c1.1-1,2.5-1.5,4.4-1.5h22.4
			l-72.5-225.3v225.3h18.3c3.4,2.1,5,4,5,5.7s-1.7,3.7-5,5.7h-118.2c-1.8,0-3.3-0.5-4.4-1.5c-1.1-1-1.6-2.4-1.6-4.2s0.6-3.2,1.8-4.2
			c1.2-1,2.6-1.5,4.1-1.5h16.9v-666h-16.9c-1.5,0-2.8-0.5-3.9-1.6c-1.1-1.1-1.6-2.4-1.6-3.9c0-1.8,0.5-3.3,1.6-4.4
			c1.1-1.1,2.4-1.6,3.9-1.6H3449.1z"/>
		<path class="st2" d="M3745.5,79.7v235c12.5-16.8,23.7-28.2,33.4-34.1c9.8-6,21.2-8.9,34.4-8.9c20.5,0,35,5.4,43.5,16
			c12.2,14.4,18.3,36.8,18.3,67.4v402.1h16.8c3.1,2.1,4.7,4,4.7,5.7s-1.5,3.7-4.6,5.7h-109.9c-2.1-1.8-3.2-3.7-3.2-5.7
			c0-2.1,1.1-4,3.3-5.7h10.9V330.7c0-11-1.4-18.6-4.2-22.9c-2.5-3.1-5.9-4.6-10.2-4.6c-7.1,0-13.8,4.3-20,12.8
			c-8.9,12.8-13.3,30.1-13.3,51.8v389.3h12.4c3,2.1,4.6,4,4.6,5.7s-1.5,3.7-4.6,5.7h-113.1l-2.3-1.3l-1.4-4.4c0-2.1,1.2-4,3.7-5.7
			h20.6v-666h-20.6c-3.1-1.8-4.6-3.7-4.6-5.5c0-2.1,1.5-4.1,4.6-6H3745.5z"/>
		<path class="st2" d="M3948.8,325.6c4.3-1.5,8.4-2.7,12.4-3.4c4-0.8,7.6-1.1,11-1.1c12.2,0,22.5,4.4,30.9,13.3
			c8.4,8.9,12.6,20.5,12.6,34.8c0,14.7-4.3,26.4-12.8,35.3c-8.6,8.9-20,13.3-34.4,13.3c-14.4,0-25.6-4.5-33.9-13.5
			c-8.2-9-12.4-22.4-12.4-40.1c0-26.3,9.9-48.2,29.8-66c19.8-17.7,48.1-26.6,84.7-26.6c33,0,56.7,6.2,71.2,18.5
			c14.5,12.4,21.8,28.2,21.8,47.4v395.7c0,4.6,1.2,8.3,3.7,11.2c2.4,2.9,5,4.4,7.8,4.4c7.6,0,15.4-8.1,23.4-24.3
			c2.1-4.9,4.3-7.3,6.4-7.3l5.5,5c0,10.7-6.9,22-20.6,33.9c-13.7,11.9-30.2,17.9-49.5,17.9c-16.5,0-29.2-3.8-38.2-11.5
			c-9-7.6-15.8-21.1-20.4-40.3c-14,20.8-26.3,34.6-36.9,41.5c-10.5,6.9-23,10.3-37.3,10.3c-17.4,0-30.8-4.5-40.1-13.5
			c-9.3-9-14-20.8-14-35.5V552.4c0-18.6,4-32.4,12.1-41.2c8.1-8.9,32-19.8,71.7-33c17.7-6.1,32.5-12.2,44.4-18.3V327.9
			c0-13.7-3.6-24.4-10.8-32.1c-7.2-7.6-16.6-11.5-28.2-11.5C3982,284.4,3962,298.2,3948.8,325.6z M4047.8,474
			c-19.5,7.6-32.1,15.3-37.8,22.9c-5.7,7.6-8.5,19.9-8.5,36.6v193.7c0,6.4,1.1,11.1,3.4,14.2c2.3,3.1,5.1,4.6,8.5,4.6
			c4.9,0,10.4-5.2,16.5-15.6c11.9-19.2,17.9-42.4,17.9-69.6V474z"/>
		<path class="st2" d="M4283.7,757.1l11,0.9c1.5,0.9,2.3,2.5,2.3,4.8c0,1.8-1.5,3.7-4.6,5.7h-108.6c-3.1-2.1-4.6-4-4.6-5.7
			s1.5-3.7,4.6-5.7h17.9V288.5h-17.9c-3.1-1.8-4.6-3.5-4.6-5.3c0-2.1,1.5-4.1,4.6-6.2h99.8v36.7c11-16.5,21.1-27.6,30.2-33.4
			c9.2-5.8,21.2-8.7,36.2-8.7c16.8,0,29.5,3.4,38.2,10.3c8.7,6.9,16.1,19.8,22.2,38.7c9.8-19.2,19.2-32.2,28.4-38.9
			c9.2-6.7,21.7-10.1,37.6-10.1c21.7,0,37.6,5.1,47.9,15.4c10.2,10.2,15.3,24.8,15.3,43.8v426.4h15.1c1.8,0,3.4,0.5,4.6,1.5
			c1.2,1,1.8,2.4,1.8,4.2l-1.4,4c-1.5,1.2-3.2,1.8-5.1,1.8h-106.7c-3.1-2.1-4.6-4-4.6-5.7s1.5-3.7,4.6-5.7h9.6V313.7
			c0-5.2-1.3-9.3-3.9-12.4c-2.6-3.1-5.4-4.6-8.4-4.6c-6.7,0-13.2,5-19.5,15.1c-10.3,16.2-15.4,38.8-15.4,67.9v377.3h10.1l2.7,1.3
			c0.9,1.2,1.4,2.6,1.4,4.4s-1.4,3.7-4.1,5.7h-103.1c-2.4-1.8-3.7-3.7-3.7-5.7c0-2.1,1.2-4,3.7-5.7h12.4V320.6
			c0-8.3-1.4-14.1-4.1-17.6c-2.7-3.5-6-5.3-9.6-5.3c-6.1,0-11.8,3.8-16.9,11.5c-10.4,15.9-15.6,33.3-15.6,52.3V757.1z"/>
	</g>
</g>
</svg>
